<?xml version="1.0" encoding="UTF-8"?>
<svg width="106px" height="56px" viewBox="0 0 106 56" version="1.1" xmlns="http://www.w3.org/2000/svg" xmlns:xlink="http://www.w3.org/1999/xlink">
    <title>logo</title>
    <defs>
        <radialGradient cx="49.9219164%" cy="49.9950167%" fx="49.9219164%" fy="49.9950167%" r="62.301728%" gradientTransform="translate(0.499219,0.499950),scale(1.000000,0.545740),translate(-0.499219,-0.499950)" id="radialGradient-1">
            <stop stop-color="#D4AF39" offset="0%"></stop>
            <stop stop-color="#D3AB7C" offset="5.58621066%"></stop>
            <stop stop-color="#F581FF" offset="45.0502622%"></stop>
            <stop stop-color="#1100CF" offset="100%"></stop>
        </radialGradient>
    </defs>
    <g id="Page-1" stroke="none" stroke-width="1" fill="none" fill-rule="evenodd">
        <path d="M15.5099061,4.60150498 L2.41695156,20.7841136 L15.5099061,52.5839192 L28.6028607,20.7841136 L15.5099061,4.60150498 Z M15.131497,16.9495681 L12.2051334,11.0463863 L15.131497,7.71638628 L15.131497,16.9495681 Z M16.0396788,7.71638628 L27.2910425,20.6832045 L15.9892243,26.6368408 L16.0396788,7.71638628 Z M15.0305879,46.1122954 L5.79740611,25.9809317 L15.0810425,32.7418408 L15.0305879,46.1122954 Z M15.9892243,27.6459317 L27.0387697,21.843659 L15.9387697,46.0618408 L15.9892243,27.6459317 Z M11.5492243,11.8032045 L15.0810425,18.9172954 L15.131497,18.9172954 L15.0810425,31.6318408 L5.04058793,24.3159317 L3.47649702,20.9354772 L11.5492243,11.8032045 Z" id="Shape" fill="url(#radialGradient-1)" fill-rule="nonzero"></path>
        <path d="M36.7277768,28.7977369 L36.7277768,26.1037505 L38.4242417,24.726221 L41.1317998,28.7977369 L45.9701179,28.7977369 L41.3693049,22.3918852 L45.5561804,18.7614502 L40.3039249,18.7614502 L36.7277768,22.2358104 L36.7277768,18.7614502 L32.8394791,18.7614502 L32.8394791,28.7977369 L36.7277768,28.7977369 Z M48.2431434,28.7977369 L48.2431434,25.1516076 C48.2431434,24.6629934 48.2996009,24.3180893 48.412516,24.1168953 C48.525431,23.9157012 48.7153336,23.8151041 48.9822237,23.8151041 C49.2326898,23.8151041 49.4195128,23.9023567 49.5426929,24.0768617 C49.6658729,24.2513668 49.7274629,24.5172304 49.7274629,24.8744525 L49.7274629,24.9237245 L52.5174909,24.9237245 L52.5174909,24.3078243 C52.5174909,23.355232 52.3275883,22.6582382 51.9477832,22.2168431 C51.5679781,21.7754479 50.9715814,21.5547504 50.1585931,21.5547504 C49.7479929,21.5547504 49.3784528,21.6153139 49.0499727,21.7364409 C48.7214926,21.857568 48.4381785,22.0372055 48.2000304,22.2753536 L48.1630764,21.7333614 L45.0343033,21.7333614 L45.0343033,28.7977369 L48.2431434,28.7977369 Z M59.7974314,28.7977369 L59.7974314,26.223274 L63.8562138,19.6885727 L59.7974314,19.6885727 L58.0544338,23.439405 L56.4161392,19.6885727 L52.2649718,19.6885727 L56.2621642,26.223274 L56.2621642,28.7977369 L59.7974314,28.7977369 Z M67.8410882,28.7977369 L67.8410882,25.5950558 L71.1238363,25.5950558 C72.4131208,25.5950558 73.4077996,25.3374042 74.1078729,24.822101 C74.8079461,24.3067978 75.1579827,23.5810621 75.1579827,22.6448937 C75.1579827,21.7046194 74.8079461,20.9768307 74.1078729,20.4615275 C73.4077996,19.9462243 72.4131208,19.6885727 71.1238363,19.6885727 L64.31198,19.6885727 L64.31198,28.7977369 L67.8410882,28.7977369 Z M67.8410882,23.6118571 L67.8410882,21.6471354 L69.7750149,21.6471354 C70.3498551,21.6471354 70.7471107,21.7200169 70.9667818,21.86578 C71.1864529,22.011543 71.2962884,22.2671416 71.2962884,22.6325757 C71.2962884,22.9939039 71.1864529,23.2474495 70.9667818,23.3932125 C70.7471107,23.5389756 70.3498551,23.6118571 69.7750149,23.6118571 L67.8410882,23.6118571 Z M82.2100402,28.7977369 L82.2100402,21.9981985 L85.5174243,21.9981985 L85.5174243,19.6885727 L75.3858658,19.6885727 L75.3858658,21.9981985 L78.680932,21.9981985 L78.680932,28.7977369 L82.2100402,28.7977369 Z M95.0392416,18.6908144 L95.0392416,16.9047038 L92.5263687,16.9047038 L92.5263687,18.6908144 L95.0392416,18.6908144 Z M91.7318575,18.6908144 L91.7318575,16.9047038 L89.2251436,16.9047038 L89.2251436,18.6908144 L91.7318575,18.6908144 Z M92.1383516,29.037938 C94.1626103,29.037938 95.6900428,28.6345233 96.7206492,27.827694 C97.7512555,27.0208648 98.2665587,25.8270448 98.2665587,24.2462343 C98.2665587,22.6613177 97.7512555,21.4654448 96.7206492,20.6586156 C95.6900428,19.8517863 94.1626103,19.4483716 92.1383516,19.4483716 C90.1140929,19.4483716 88.5866604,19.8517863 87.556054,20.6586156 C86.5254477,21.4654448 86.0101445,22.6613177 86.0101445,24.2462343 C86.0101445,25.8270448 86.5254477,27.0208648 87.556054,27.827694 C88.5866604,28.6345233 90.1140929,29.037938 92.1383516,29.037938 Z M92.1383516,26.6913581 C91.3828473,26.6913581 90.8049276,26.4819521 90.4045925,26.0631399 C90.0042574,25.6443278 89.8040898,25.0386926 89.8040898,24.2462343 C89.8040898,23.44967 90.0042574,22.8399288 90.4045925,22.4170107 C90.8049276,21.9940925 91.3828473,21.7826334 92.1383516,21.7826334 C92.8938559,21.7826334 93.4717756,21.9940925 93.8721107,22.4170107 C94.2724458,22.8399288 94.4726134,23.44967 94.4726134,24.2462343 C94.4726134,25.0386926 94.2724458,25.6443278 93.8721107,26.0631399 C93.4717756,26.4819521 92.8938559,26.6913581 92.1383516,26.6913581 Z" id="KrYPTÖ" fill="#2E2E49" fill-rule="nonzero"></path>
        <path d="M29.8692941,41.0067187 C30.2350895,40.1237642 30.6387259,39.2786505 31.0423622,38.4966051 C31.572135,39.2660369 32.0514531,40.0985369 32.5181577,40.9941051 C32.6442941,41.2337642 32.8461122,41.2085369 32.9722486,41.031946 C33.0857713,40.8805823 33.1866804,40.6409232 33.1866804,40.3886505 C33.1866804,40.1868323 33.1236122,39.8841051 32.9974759,39.5813778 C32.8461122,39.2534232 32.5055441,38.6605823 32.1397486,38.0677414 C33.7669077,36.8946732 35.4697486,35.4188778 36.012135,34.6620596 C36.4788395,34.0313778 36.5166804,33.5520596 36.428385,33.2997869 C36.3527031,33.0727414 36.1761122,33.0349005 36.0373622,33.1988778 C34.9147486,34.5233096 33.3254304,35.7846732 31.8622486,36.9199005 C32.2280441,36.2513778 32.3289531,36.1000142 32.820885,35.2170596 C33.1362259,34.6620596 33.2245213,34.2079687 33.2245213,33.8800142 C33.2245213,33.6655823 33.1614531,33.4637642 33.0857713,33.3250142 C32.9217941,33.0601278 32.7578168,33.0475142 32.5686122,33.2997869 C31.7991804,34.371946 29.6548622,38.5849005 29.3395213,39.6318323 C29.2638395,39.921946 29.2259986,40.1742187 29.2259986,40.3886505 C29.2259986,40.6787642 29.3142941,40.893196 29.4278168,41.0697869 C29.6044077,41.2968323 29.768385,41.2463778 29.8692941,41.0067187 Z M37.1852031,41.1959232 C38.6357713,41.1959232 39.9097486,39.8967187 40.7674759,38.3326278 C41.2467941,37.4496732 41.5747486,36.3649005 41.5747486,35.4314914 C41.5747486,34.5359232 41.2467941,33.7664914 40.4269077,33.400696 C40.2124759,33.1736505 39.8592941,33.0222869 39.4052031,33.0222869 C39.1403168,33.0222869 38.9006577,33.0601278 38.648385,33.1484232 C37.2104304,33.6529687 34.8390668,35.9864914 34.8390668,38.6479687 C34.8390668,39.6949005 35.2553168,40.6409232 36.3400895,41.0445596 C36.6175895,41.1454687 36.8824759,41.1959232 37.1852031,41.1959232 Z M36.7689531,40.5021732 C36.289635,40.5021732 35.9742941,40.0102414 35.9742941,39.1272869 C35.9742941,38.3074005 36.2517941,37.2226278 36.8950895,36.2261505 C38.0429304,34.4728551 39.5313395,33.6403551 40.0863395,33.8421732 C40.3512259,33.9430823 40.4773622,34.3467187 40.4773622,34.9521732 C40.4773622,35.7216051 40.2250895,36.7811505 39.619635,37.9037642 C38.7240668,39.5435369 37.5509986,40.5021732 36.7689531,40.5021732 Z M41.6630441,40.9688778 C42.2180441,39.4174005 43.1136122,37.6767187 44.0091804,36.1378551 C43.8956577,37.2100142 43.8452031,38.256946 43.8452031,38.9885369 C43.8452031,39.2912642 43.8578168,39.5435369 43.8830441,39.9093323 C43.9334986,40.5526278 44.1353168,40.8805823 44.5515668,41.0950142 C44.7659986,41.2085369 44.9047486,41.1328551 44.9804304,40.9814914 C45.7498622,39.2786505 47.3013395,36.314446 48.0077031,35.1539914 C48.3987259,34.5233096 48.4744077,34.0818323 48.4744077,33.7791051 C48.4744077,33.6025142 48.4365668,33.4385369 48.360885,33.2871732 C48.222135,33.0475142 48.0707713,32.984446 47.8815668,33.2493323 C47.0490668,34.5485369 45.8255441,36.7559232 44.9678168,38.5596732 C45.0561122,37.1091051 45.169635,35.7972869 45.3462259,34.7755823 C45.3840668,34.5485369 45.4092941,34.3467187 45.4092941,34.1701278 C45.4092941,33.7160369 45.2327031,33.4511505 44.8542941,33.1736505 C44.6650895,33.0222869 44.5137259,33.0222869 44.3497486,33.2997869 C43.3911122,34.8891051 41.7891804,37.8911505 41.1332713,39.5813778 C41.0323622,39.8462642 40.9692941,40.1489914 40.9692941,40.338196 C40.9692941,40.6283096 41.0828168,40.8805823 41.2089531,41.0445596 C41.3855441,41.2337642 41.5747486,41.2211505 41.6630441,40.9688778 Z M49.4456577,41.1580823 C49.7862259,41.1580823 50.1015668,41.0950142 50.3790668,41.0193323 C51.0223622,40.8427414 52.5486122,39.7201278 52.2963395,38.5470596 C52.5738395,38.5218323 52.8134986,38.5218323 53.0027031,38.534446 C53.355885,38.5596732 53.3432713,38.4335369 53.2675895,38.2443323 C53.0909986,37.840696 52.7125895,37.5505823 52.0188395,37.563196 C51.6404304,37.563196 51.2494077,37.6388778 50.8205441,37.701946 C50.3538395,37.7902414 49.8492941,37.8785369 49.3447486,37.8911505 C49.0924759,37.8911505 49.0294077,38.0172869 49.1050895,38.2064914 C49.2942941,38.5975142 49.7736122,38.8876278 50.4295213,38.8371732 C50.6817941,38.811946 50.9845213,38.7741051 51.3124759,38.7110369 C50.719635,39.8210369 49.8240668,40.5147869 49.1555441,40.5147869 C48.7519077,40.5147869 48.4365668,40.1868323 48.4365668,39.2155823 C48.4365668,38.4083096 48.6762259,37.3361505 49.3447486,36.314446 C50.4799759,34.5863778 52.3720213,33.5016051 52.7378168,33.8800142 C52.8765668,34.0187642 52.7504304,34.371946 52.3972486,35.2801278 C52.2963395,35.5450142 52.2837259,35.6837642 52.2837259,35.8225142 C52.2837259,36.2135369 52.4981577,36.4658096 52.7378168,36.6550142 C52.9774759,36.8442187 53.1288395,36.7180823 53.1919077,36.5541051 C53.3306577,36.1883096 53.5324759,35.6963778 53.6712259,35.3684232 C53.7847486,35.1035369 53.8352031,34.8764914 53.8352031,34.6872869 C53.8352031,34.3467187 53.6712259,33.7538778 53.0657713,33.3124005 C52.8513395,33.1610369 52.5359986,33.0727414 52.2080441,33.0727414 C51.9305441,33.0727414 51.6530441,33.0979687 51.2872486,33.2241051 C49.8619077,33.7160369 47.3013395,36.1000142 47.3013395,38.7867187 C47.3013395,39.8336505 47.7049759,40.4138778 48.1842941,40.754446 C48.5753168,41.0571732 49.0041804,41.1580823 49.4456577,41.1580823 Z M53.9991804,41.170696 C54.6929304,40.9814914 56.0425895,40.6535369 56.7111122,40.6661505 C56.9759986,40.6661505 57.0138395,40.5652414 56.9507713,40.3886505 C56.7994077,39.9724005 56.4462259,39.7705823 55.7650895,39.7958096 C55.3614531,39.8210369 54.5667941,39.9597869 54.049635,40.0985369 C54.3019077,39.5309232 54.5667941,39.0137642 54.9199759,38.3452414 C55.6011122,38.1686505 56.4840668,38.0172869 57.102135,38.0172869 C57.3922486,38.0172869 57.4174759,37.8911505 57.3544077,37.7271732 C57.2156577,37.3235369 56.8877031,37.0964914 56.1939531,37.1217187 C56.0173622,37.1343323 55.8029304,37.146946 55.5380441,37.1847869 C56.130885,36.1126278 56.7111122,35.065696 57.1273622,34.4350142 C57.3165668,34.4097869 57.4427031,34.3845596 57.6319077,34.3467187 C58.2247486,34.233196 58.905885,34.1070596 59.5365668,34.1070596 C59.7762259,34.1070596 59.8645213,33.9935369 59.8140668,33.8547869 C59.6500895,33.4133096 59.3347486,33.1862642 58.7545213,33.1988778 C58.4265668,33.1988778 58.073385,33.261946 57.6445213,33.3250142 C57.0390668,33.4259232 56.3705441,33.5016051 55.6767941,33.5016051 C55.4875895,33.5016051 55.3488395,33.5772869 55.3866804,33.7538778 C55.4497486,33.9935369 55.6011122,34.1953551 55.8912259,34.3845596 C54.8442941,36.0117187 53.633385,38.2947869 53.0657713,39.783196 C52.939635,40.1363778 52.9144077,40.3003551 53.0153168,40.4643323 C53.1540668,40.6913778 53.2423622,40.893196 53.3306577,41.0193323 C53.494635,41.2589914 53.6964531,41.2589914 53.9991804,41.170696 Z M61.9457713,41.031946 C62.0214531,40.9058096 62.0719077,40.754446 62.0719077,40.6030823 C62.0719077,40.4012642 62.0088395,40.1616051 61.8953168,39.9471732 C61.6556577,39.4804687 61.2267941,38.8750142 60.7727031,38.3326278 C62.1475895,37.979446 63.4467941,37.2100142 64.0900895,36.3396732 C64.5567941,35.6963778 64.8216804,34.9774005 64.4811122,34.1322869 C64.1657713,33.3376278 63.5477031,33.0601278 62.8791804,33.0853551 C62.4124759,33.1105823 61.9709986,33.2367187 61.4916804,33.3880823 C61.0375895,33.539446 60.5582713,33.678196 60.0537259,33.7538778 C59.7888395,33.7917187 59.7257713,33.8926278 59.8266804,34.0692187 C59.9780441,34.3341051 60.154635,34.510696 60.570885,34.5863778 C59.460885,36.314446 58.350885,38.6101278 58.0355441,39.7075142 C57.9724759,39.9345596 57.9472486,40.1616051 57.9472486,40.338196 C57.9472486,40.6535369 58.0481577,40.8553551 58.1869077,41.0067187 C58.3761122,41.1959232 58.5148622,41.170696 58.6031577,40.9310369 C58.9815668,39.9976278 59.3095213,39.2786505 59.6248622,38.6605823 C60.1294077,39.228196 60.7348622,40.0354687 61.5169077,41.0697869 C61.6682713,41.2716051 61.8070213,41.2463778 61.9457713,41.031946 Z M60.2681577,37.4496732 C60.4952031,37.0586505 60.8105441,36.5288778 61.1511122,35.898196 C61.4664531,35.3053551 61.6178168,34.8638778 61.6304304,34.510696 L62.1223622,34.3467187 C62.5259986,34.2079687 63.0053168,34.0439914 63.2954304,34.0439914 C63.484635,34.0439914 63.623385,34.1070596 63.6990668,34.3088778 C64.0270213,35.1413778 62.790885,36.8063778 60.2681577,37.4496732 Z M64.178385,40.9688778 C64.733385,39.4174005 65.6289531,37.6767187 66.5245213,36.1378551 C66.4109986,37.2100142 66.3605441,38.256946 66.3605441,38.9885369 C66.3605441,39.2912642 66.3731577,39.5435369 66.398385,39.9093323 C66.4488395,40.5526278 66.6506577,40.8805823 67.0669077,41.0950142 C67.2813395,41.2085369 67.4200895,41.1328551 67.4957713,40.9814914 C68.2652031,39.2786505 69.8166804,36.314446 70.5230441,35.1539914 C70.9140668,34.5233096 70.9897486,34.0818323 70.9897486,33.7791051 C70.9897486,33.6025142 70.9519077,33.4385369 70.8762259,33.2871732 C70.7374759,33.0475142 70.5861122,32.984446 70.3969077,33.2493323 C69.5644077,34.5485369 68.340885,36.7559232 67.4831577,38.5596732 C67.5714531,37.1091051 67.6849759,35.7972869 67.8615668,34.7755823 C67.8994077,34.5485369 67.924635,34.3467187 67.924635,34.1701278 C67.924635,33.7160369 67.7480441,33.4511505 67.369635,33.1736505 C67.1804304,33.0222869 67.0290668,33.0222869 66.8650895,33.2997869 C65.9064531,34.8891051 64.3045213,37.8911505 63.6486122,39.5813778 C63.5477031,39.8462642 63.484635,40.1489914 63.484635,40.338196 C63.484635,40.6283096 63.5981577,40.8805823 63.7242941,41.0445596 C63.900885,41.2337642 64.0900895,41.2211505 64.178385,40.9688778 Z M70.2077031,41.170696 C70.9014531,40.9814914 72.2511122,40.6535369 72.919635,40.6661505 C73.1845213,40.6661505 73.2223622,40.5652414 73.1592941,40.3886505 C73.0079304,39.9724005 72.6547486,39.7705823 71.9736122,39.7958096 C71.5699759,39.8210369 70.7753168,39.9597869 70.2581577,40.0985369 C70.5104304,39.5309232 70.7753168,39.0137642 71.1284986,38.3452414 C71.809635,38.1686505 72.6925895,38.0172869 73.3106577,38.0172869 C73.6007713,38.0172869 73.6259986,37.8911505 73.5629304,37.7271732 C73.4241804,37.3235369 73.0962259,37.0964914 72.4024759,37.1217187 C72.225885,37.1343323 72.0114531,37.146946 71.7465668,37.1847869 C72.3394077,36.1126278 72.919635,35.065696 73.335885,34.4350142 C73.5250895,34.4097869 73.6512259,34.3845596 73.8404304,34.3467187 C74.4332713,34.233196 75.1144077,34.1070596 75.7450895,34.1070596 C75.9847486,34.1070596 76.0730441,33.9935369 76.0225895,33.8547869 C75.8586122,33.4133096 75.5432713,33.1862642 74.9630441,33.1988778 C74.6350895,33.1988778 74.2819077,33.261946 73.8530441,33.3250142 C73.2475895,33.4259232 72.5790668,33.5016051 71.8853168,33.5016051 C71.6961122,33.5016051 71.5573622,33.5772869 71.5952031,33.7538778 C71.6582713,33.9935369 71.809635,34.1953551 72.0997486,34.3845596 C71.0528168,36.0117187 69.8419077,38.2947869 69.2742941,39.783196 C69.1481577,40.1363778 69.1229304,40.3003551 69.2238395,40.4643323 C69.3625895,40.6913778 69.450885,40.893196 69.5391804,41.0193323 C69.7031577,41.2589914 69.9049759,41.2589914 70.2077031,41.170696 Z" id="KONGERNE" fill="#2E2E49" fill-rule="nonzero" transform="translate(52.631137, 37.123543) rotate(-3.000000) translate(-52.631137, -37.123543) "></path>
    </g>
</svg>