<?xml version="1.0" encoding="UTF-8"?>
<svg width="107px" height="56px" viewBox="0 0 107 56" version="1.1" xmlns="http://www.w3.org/2000/svg" xmlns:xlink="http://www.w3.org/1999/xlink">
    <title>logo</title>
    <defs>
        <radialGradient cx="49.9219164%" cy="49.9950167%" fx="49.9219164%" fy="49.9950167%" r="62.301728%" gradientTransform="translate(0.499219,0.499950),scale(1.000000,0.545740),translate(-0.499219,-0.499950)" id="radialGradient-1">
            <stop stop-color="#D4AF39" offset="0%"></stop>
            <stop stop-color="#D3AB7C" offset="5.58621066%"></stop>
            <stop stop-color="#F581FF" offset="45.0502622%"></stop>
            <stop stop-color="#3B5DDA" offset="100%"></stop>
        </radialGradient>
    </defs>
    <g id="Page-1" stroke="none" stroke-width="1" fill="none" fill-rule="evenodd">
        <path d="M16.0099061,4.60150498 L2.91695156,20.7841136 L16.0099061,52.5839192 L29.1028607,20.7841136 L16.0099061,4.60150498 Z M15.631497,16.9495681 L12.7051334,11.0463863 L15.631497,7.71638628 L15.631497,16.9495681 Z M16.5396788,7.71638628 L27.7910425,20.6832045 L16.4892243,26.6368408 L16.5396788,7.71638628 Z M15.5305879,46.1122954 L6.29740611,25.9809317 L15.5810425,32.7418408 L15.5305879,46.1122954 Z M16.4892243,27.6459317 L27.5387697,21.843659 L16.4387697,46.0618408 L16.4892243,27.6459317 Z M12.0492243,11.8032045 L15.5810425,18.9172954 L15.631497,18.9172954 L15.5810425,31.6318408 L5.54058793,24.3159317 L3.97649702,20.9354772 L12.0492243,11.8032045 Z" id="Shape" fill="url(#radialGradient-1)" fill-rule="nonzero"></path>
        <path d="M37.2277768,28.7977369 L37.2277768,26.1037505 L38.9242417,24.726221 L41.6317998,28.7977369 L46.4701179,28.7977369 L41.8693049,22.3918852 L46.0561804,18.7614502 L40.8039249,18.7614502 L37.2277768,22.2358104 L37.2277768,18.7614502 L33.3394791,18.7614502 L33.3394791,28.7977369 L37.2277768,28.7977369 Z M48.7431434,28.7977369 L48.7431434,25.1516076 C48.7431434,24.6629934 48.7996009,24.3180893 48.912516,24.1168953 C49.025431,23.9157012 49.2153336,23.8151041 49.4822237,23.8151041 C49.7326898,23.8151041 49.9195128,23.9023567 50.0426929,24.0768617 C50.1658729,24.2513668 50.2274629,24.5172304 50.2274629,24.8744525 L50.2274629,24.9237245 L53.0174909,24.9237245 L53.0174909,24.3078243 C53.0174909,23.355232 52.8275883,22.6582382 52.4477832,22.2168431 C52.0679781,21.7754479 51.4715814,21.5547504 50.6585931,21.5547504 C50.2479929,21.5547504 49.8784528,21.6153139 49.5499727,21.7364409 C49.2214926,21.857568 48.9381785,22.0372055 48.7000304,22.2753536 L48.6630764,21.7333614 L45.5343033,21.7333614 L45.5343033,28.7977369 L48.7431434,28.7977369 Z M60.2974314,28.7977369 L60.2974314,26.223274 L64.3562138,19.6885727 L60.2974314,19.6885727 L58.5544338,23.439405 L56.9161392,19.6885727 L52.7649718,19.6885727 L56.7621642,26.223274 L56.7621642,28.7977369 L60.2974314,28.7977369 Z M68.3410882,28.7977369 L68.3410882,25.5950558 L71.6238363,25.5950558 C72.9131208,25.5950558 73.9077996,25.3374042 74.6078729,24.822101 C75.3079461,24.3067978 75.6579827,23.5810621 75.6579827,22.6448937 C75.6579827,21.7046194 75.3079461,20.9768307 74.6078729,20.4615275 C73.9077996,19.9462243 72.9131208,19.6885727 71.6238363,19.6885727 L64.81198,19.6885727 L64.81198,28.7977369 L68.3410882,28.7977369 Z M68.3410882,23.6118571 L68.3410882,21.6471354 L70.2750149,21.6471354 C70.8498551,21.6471354 71.2471107,21.7200169 71.4667818,21.86578 C71.6864529,22.011543 71.7962884,22.2671416 71.7962884,22.6325757 C71.7962884,22.9939039 71.6864529,23.2474495 71.4667818,23.3932125 C71.2471107,23.5389756 70.8498551,23.6118571 70.2750149,23.6118571 L68.3410882,23.6118571 Z M82.7100402,28.7977369 L82.7100402,21.9981985 L86.0174243,21.9981985 L86.0174243,19.6885727 L75.8858658,19.6885727 L75.8858658,21.9981985 L79.180932,21.9981985 L79.180932,28.7977369 L82.7100402,28.7977369 Z M95.5392416,18.6908144 L95.5392416,16.9047038 L93.0263687,16.9047038 L93.0263687,18.6908144 L95.5392416,18.6908144 Z M92.2318575,18.6908144 L92.2318575,16.9047038 L89.7251436,16.9047038 L89.7251436,18.6908144 L92.2318575,18.6908144 Z M92.6383516,29.037938 C94.6626103,29.037938 96.1900428,28.6345233 97.2206492,27.827694 C98.2512555,27.0208648 98.7665587,25.8270448 98.7665587,24.2462343 C98.7665587,22.6613177 98.2512555,21.4654448 97.2206492,20.6586156 C96.1900428,19.8517863 94.6626103,19.4483716 92.6383516,19.4483716 C90.6140929,19.4483716 89.0866604,19.8517863 88.056054,20.6586156 C87.0254477,21.4654448 86.5101445,22.6613177 86.5101445,24.2462343 C86.5101445,25.8270448 87.0254477,27.0208648 88.056054,27.827694 C89.0866604,28.6345233 90.6140929,29.037938 92.6383516,29.037938 Z M92.6383516,26.6913581 C91.8828473,26.6913581 91.3049276,26.4819521 90.9045925,26.0631399 C90.5042574,25.6443278 90.3040898,25.0386926 90.3040898,24.2462343 C90.3040898,23.44967 90.5042574,22.8399288 90.9045925,22.4170107 C91.3049276,21.9940925 91.8828473,21.7826334 92.6383516,21.7826334 C93.3938559,21.7826334 93.9717756,21.9940925 94.3721107,22.4170107 C94.7724458,22.8399288 94.9726134,23.44967 94.9726134,24.2462343 C94.9726134,25.0386926 94.7724458,25.6443278 94.3721107,26.0631399 C93.9717756,26.4819521 93.3938559,26.6913581 92.6383516,26.6913581 Z" id="KrYPTÖ" fill="#E7E7EE" fill-rule="nonzero"></path>
        <path d="M30.3692941,41.0067187 C30.7350895,40.1237642 31.1387259,39.2786505 31.5423622,38.4966051 C32.072135,39.2660369 32.5514531,40.0985369 33.0181577,40.9941051 C33.1442941,41.2337642 33.3461122,41.2085369 33.4722486,41.031946 C33.5857713,40.8805823 33.6866804,40.6409232 33.6866804,40.3886505 C33.6866804,40.1868323 33.6236122,39.8841051 33.4974759,39.5813778 C33.3461122,39.2534232 33.0055441,38.6605823 32.6397486,38.0677414 C34.2669077,36.8946732 35.9697486,35.4188778 36.512135,34.6620596 C36.9788395,34.0313778 37.0166804,33.5520596 36.928385,33.2997869 C36.8527031,33.0727414 36.6761122,33.0349005 36.5373622,33.1988778 C35.4147486,34.5233096 33.8254304,35.7846732 32.3622486,36.9199005 C32.7280441,36.2513778 32.8289531,36.1000142 33.320885,35.2170596 C33.6362259,34.6620596 33.7245213,34.2079687 33.7245213,33.8800142 C33.7245213,33.6655823 33.6614531,33.4637642 33.5857713,33.3250142 C33.4217941,33.0601278 33.2578168,33.0475142 33.0686122,33.2997869 C32.2991804,34.371946 30.1548622,38.5849005 29.8395213,39.6318323 C29.7638395,39.921946 29.7259986,40.1742187 29.7259986,40.3886505 C29.7259986,40.6787642 29.8142941,40.893196 29.9278168,41.0697869 C30.1044077,41.2968323 30.268385,41.2463778 30.3692941,41.0067187 Z M37.6852031,41.1959232 C39.1357713,41.1959232 40.4097486,39.8967187 41.2674759,38.3326278 C41.7467941,37.4496732 42.0747486,36.3649005 42.0747486,35.4314914 C42.0747486,34.5359232 41.7467941,33.7664914 40.9269077,33.400696 C40.7124759,33.1736505 40.3592941,33.0222869 39.9052031,33.0222869 C39.6403168,33.0222869 39.4006577,33.0601278 39.148385,33.1484232 C37.7104304,33.6529687 35.3390668,35.9864914 35.3390668,38.6479687 C35.3390668,39.6949005 35.7553168,40.6409232 36.8400895,41.0445596 C37.1175895,41.1454687 37.3824759,41.1959232 37.6852031,41.1959232 Z M37.2689531,40.5021732 C36.789635,40.5021732 36.4742941,40.0102414 36.4742941,39.1272869 C36.4742941,38.3074005 36.7517941,37.2226278 37.3950895,36.2261505 C38.5429304,34.4728551 40.0313395,33.6403551 40.5863395,33.8421732 C40.8512259,33.9430823 40.9773622,34.3467187 40.9773622,34.9521732 C40.9773622,35.7216051 40.7250895,36.7811505 40.119635,37.9037642 C39.2240668,39.5435369 38.0509986,40.5021732 37.2689531,40.5021732 Z M42.1630441,40.9688778 C42.7180441,39.4174005 43.6136122,37.6767187 44.5091804,36.1378551 C44.3956577,37.2100142 44.3452031,38.256946 44.3452031,38.9885369 C44.3452031,39.2912642 44.3578168,39.5435369 44.3830441,39.9093323 C44.4334986,40.5526278 44.6353168,40.8805823 45.0515668,41.0950142 C45.2659986,41.2085369 45.4047486,41.1328551 45.4804304,40.9814914 C46.2498622,39.2786505 47.8013395,36.314446 48.5077031,35.1539914 C48.8987259,34.5233096 48.9744077,34.0818323 48.9744077,33.7791051 C48.9744077,33.6025142 48.9365668,33.4385369 48.860885,33.2871732 C48.722135,33.0475142 48.5707713,32.984446 48.3815668,33.2493323 C47.5490668,34.5485369 46.3255441,36.7559232 45.4678168,38.5596732 C45.5561122,37.1091051 45.669635,35.7972869 45.8462259,34.7755823 C45.8840668,34.5485369 45.9092941,34.3467187 45.9092941,34.1701278 C45.9092941,33.7160369 45.7327031,33.4511505 45.3542941,33.1736505 C45.1650895,33.0222869 45.0137259,33.0222869 44.8497486,33.2997869 C43.8911122,34.8891051 42.2891804,37.8911505 41.6332713,39.5813778 C41.5323622,39.8462642 41.4692941,40.1489914 41.4692941,40.338196 C41.4692941,40.6283096 41.5828168,40.8805823 41.7089531,41.0445596 C41.8855441,41.2337642 42.0747486,41.2211505 42.1630441,40.9688778 Z M49.9456577,41.1580823 C50.2862259,41.1580823 50.6015668,41.0950142 50.8790668,41.0193323 C51.5223622,40.8427414 53.0486122,39.7201278 52.7963395,38.5470596 C53.0738395,38.5218323 53.3134986,38.5218323 53.5027031,38.534446 C53.855885,38.5596732 53.8432713,38.4335369 53.7675895,38.2443323 C53.5909986,37.840696 53.2125895,37.5505823 52.5188395,37.563196 C52.1404304,37.563196 51.7494077,37.6388778 51.3205441,37.701946 C50.8538395,37.7902414 50.3492941,37.8785369 49.8447486,37.8911505 C49.5924759,37.8911505 49.5294077,38.0172869 49.6050895,38.2064914 C49.7942941,38.5975142 50.2736122,38.8876278 50.9295213,38.8371732 C51.1817941,38.811946 51.4845213,38.7741051 51.8124759,38.7110369 C51.219635,39.8210369 50.3240668,40.5147869 49.6555441,40.5147869 C49.2519077,40.5147869 48.9365668,40.1868323 48.9365668,39.2155823 C48.9365668,38.4083096 49.1762259,37.3361505 49.8447486,36.314446 C50.9799759,34.5863778 52.8720213,33.5016051 53.2378168,33.8800142 C53.3765668,34.0187642 53.2504304,34.371946 52.8972486,35.2801278 C52.7963395,35.5450142 52.7837259,35.6837642 52.7837259,35.8225142 C52.7837259,36.2135369 52.9981577,36.4658096 53.2378168,36.6550142 C53.4774759,36.8442187 53.6288395,36.7180823 53.6919077,36.5541051 C53.8306577,36.1883096 54.0324759,35.6963778 54.1712259,35.3684232 C54.2847486,35.1035369 54.3352031,34.8764914 54.3352031,34.6872869 C54.3352031,34.3467187 54.1712259,33.7538778 53.5657713,33.3124005 C53.3513395,33.1610369 53.0359986,33.0727414 52.7080441,33.0727414 C52.4305441,33.0727414 52.1530441,33.0979687 51.7872486,33.2241051 C50.3619077,33.7160369 47.8013395,36.1000142 47.8013395,38.7867187 C47.8013395,39.8336505 48.2049759,40.4138778 48.6842941,40.754446 C49.0753168,41.0571732 49.5041804,41.1580823 49.9456577,41.1580823 Z M54.4991804,41.170696 C55.1929304,40.9814914 56.5425895,40.6535369 57.2111122,40.6661505 C57.4759986,40.6661505 57.5138395,40.5652414 57.4507713,40.3886505 C57.2994077,39.9724005 56.9462259,39.7705823 56.2650895,39.7958096 C55.8614531,39.8210369 55.0667941,39.9597869 54.549635,40.0985369 C54.8019077,39.5309232 55.0667941,39.0137642 55.4199759,38.3452414 C56.1011122,38.1686505 56.9840668,38.0172869 57.602135,38.0172869 C57.8922486,38.0172869 57.9174759,37.8911505 57.8544077,37.7271732 C57.7156577,37.3235369 57.3877031,37.0964914 56.6939531,37.1217187 C56.5173622,37.1343323 56.3029304,37.146946 56.0380441,37.1847869 C56.630885,36.1126278 57.2111122,35.065696 57.6273622,34.4350142 C57.8165668,34.4097869 57.9427031,34.3845596 58.1319077,34.3467187 C58.7247486,34.233196 59.405885,34.1070596 60.0365668,34.1070596 C60.2762259,34.1070596 60.3645213,33.9935369 60.3140668,33.8547869 C60.1500895,33.4133096 59.8347486,33.1862642 59.2545213,33.1988778 C58.9265668,33.1988778 58.573385,33.261946 58.1445213,33.3250142 C57.5390668,33.4259232 56.8705441,33.5016051 56.1767941,33.5016051 C55.9875895,33.5016051 55.8488395,33.5772869 55.8866804,33.7538778 C55.9497486,33.9935369 56.1011122,34.1953551 56.3912259,34.3845596 C55.3442941,36.0117187 54.133385,38.2947869 53.5657713,39.783196 C53.439635,40.1363778 53.4144077,40.3003551 53.5153168,40.4643323 C53.6540668,40.6913778 53.7423622,40.893196 53.8306577,41.0193323 C53.994635,41.2589914 54.1964531,41.2589914 54.4991804,41.170696 Z M62.4457713,41.031946 C62.5214531,40.9058096 62.5719077,40.754446 62.5719077,40.6030823 C62.5719077,40.4012642 62.5088395,40.1616051 62.3953168,39.9471732 C62.1556577,39.4804687 61.7267941,38.8750142 61.2727031,38.3326278 C62.6475895,37.979446 63.9467941,37.2100142 64.5900895,36.3396732 C65.0567941,35.6963778 65.3216804,34.9774005 64.9811122,34.1322869 C64.6657713,33.3376278 64.0477031,33.0601278 63.3791804,33.0853551 C62.9124759,33.1105823 62.4709986,33.2367187 61.9916804,33.3880823 C61.5375895,33.539446 61.0582713,33.678196 60.5537259,33.7538778 C60.2888395,33.7917187 60.2257713,33.8926278 60.3266804,34.0692187 C60.4780441,34.3341051 60.654635,34.510696 61.070885,34.5863778 C59.960885,36.314446 58.850885,38.6101278 58.5355441,39.7075142 C58.4724759,39.9345596 58.4472486,40.1616051 58.4472486,40.338196 C58.4472486,40.6535369 58.5481577,40.8553551 58.6869077,41.0067187 C58.8761122,41.1959232 59.0148622,41.170696 59.1031577,40.9310369 C59.4815668,39.9976278 59.8095213,39.2786505 60.1248622,38.6605823 C60.6294077,39.228196 61.2348622,40.0354687 62.0169077,41.0697869 C62.1682713,41.2716051 62.3070213,41.2463778 62.4457713,41.031946 Z M60.7681577,37.4496732 C60.9952031,37.0586505 61.3105441,36.5288778 61.6511122,35.898196 C61.9664531,35.3053551 62.1178168,34.8638778 62.1304304,34.510696 L62.6223622,34.3467187 C63.0259986,34.2079687 63.5053168,34.0439914 63.7954304,34.0439914 C63.984635,34.0439914 64.123385,34.1070596 64.1990668,34.3088778 C64.5270213,35.1413778 63.290885,36.8063778 60.7681577,37.4496732 Z M64.678385,40.9688778 C65.233385,39.4174005 66.1289531,37.6767187 67.0245213,36.1378551 C66.9109986,37.2100142 66.8605441,38.256946 66.8605441,38.9885369 C66.8605441,39.2912642 66.8731577,39.5435369 66.898385,39.9093323 C66.9488395,40.5526278 67.1506577,40.8805823 67.5669077,41.0950142 C67.7813395,41.2085369 67.9200895,41.1328551 67.9957713,40.9814914 C68.7652031,39.2786505 70.3166804,36.314446 71.0230441,35.1539914 C71.4140668,34.5233096 71.4897486,34.0818323 71.4897486,33.7791051 C71.4897486,33.6025142 71.4519077,33.4385369 71.3762259,33.2871732 C71.2374759,33.0475142 71.0861122,32.984446 70.8969077,33.2493323 C70.0644077,34.5485369 68.840885,36.7559232 67.9831577,38.5596732 C68.0714531,37.1091051 68.1849759,35.7972869 68.3615668,34.7755823 C68.3994077,34.5485369 68.424635,34.3467187 68.424635,34.1701278 C68.424635,33.7160369 68.2480441,33.4511505 67.869635,33.1736505 C67.6804304,33.0222869 67.5290668,33.0222869 67.3650895,33.2997869 C66.4064531,34.8891051 64.8045213,37.8911505 64.1486122,39.5813778 C64.0477031,39.8462642 63.984635,40.1489914 63.984635,40.338196 C63.984635,40.6283096 64.0981577,40.8805823 64.2242941,41.0445596 C64.400885,41.2337642 64.5900895,41.2211505 64.678385,40.9688778 Z M70.7077031,41.170696 C71.4014531,40.9814914 72.7511122,40.6535369 73.419635,40.6661505 C73.6845213,40.6661505 73.7223622,40.5652414 73.6592941,40.3886505 C73.5079304,39.9724005 73.1547486,39.7705823 72.4736122,39.7958096 C72.0699759,39.8210369 71.2753168,39.9597869 70.7581577,40.0985369 C71.0104304,39.5309232 71.2753168,39.0137642 71.6284986,38.3452414 C72.309635,38.1686505 73.1925895,38.0172869 73.8106577,38.0172869 C74.1007713,38.0172869 74.1259986,37.8911505 74.0629304,37.7271732 C73.9241804,37.3235369 73.5962259,37.0964914 72.9024759,37.1217187 C72.725885,37.1343323 72.5114531,37.146946 72.2465668,37.1847869 C72.8394077,36.1126278 73.419635,35.065696 73.835885,34.4350142 C74.0250895,34.4097869 74.1512259,34.3845596 74.3404304,34.3467187 C74.9332713,34.233196 75.6144077,34.1070596 76.2450895,34.1070596 C76.4847486,34.1070596 76.5730441,33.9935369 76.5225895,33.8547869 C76.3586122,33.4133096 76.0432713,33.1862642 75.4630441,33.1988778 C75.1350895,33.1988778 74.7819077,33.261946 74.3530441,33.3250142 C73.7475895,33.4259232 73.0790668,33.5016051 72.3853168,33.5016051 C72.1961122,33.5016051 72.0573622,33.5772869 72.0952031,33.7538778 C72.1582713,33.9935369 72.309635,34.1953551 72.5997486,34.3845596 C71.5528168,36.0117187 70.3419077,38.2947869 69.7742941,39.783196 C69.6481577,40.1363778 69.6229304,40.3003551 69.7238395,40.4643323 C69.8625895,40.6913778 69.950885,40.893196 70.0391804,41.0193323 C70.2031577,41.2589914 70.4049759,41.2589914 70.7077031,41.170696 Z" id="KONGERNE" fill="#A7A7B9" fill-rule="nonzero" transform="translate(53.131137, 37.123543) rotate(-3.000000) translate(-53.131137, -37.123543) "></path>
    </g>
</svg>