<?xml version="1.0" encoding="UTF-8"?>
<svg width="174px" height="91px" viewBox="0 0 174 91" version="1.1" xmlns="http://www.w3.org/2000/svg" xmlns:xlink="http://www.w3.org/1999/xlink">
    <title>logo</title>
    <defs>
        <radialGradient cx="49.9219164%" cy="49.9950167%" fx="49.9219164%" fy="49.9950167%" r="62.301728%" gradientTransform="translate(0.499219,0.499950),scale(1.000000,0.545740),translate(-0.499219,-0.499950)" id="radialGradient-1">
            <stop stop-color="#D4AF39" offset="0%"></stop>
            <stop stop-color="#D3AB7C" offset="5.58621066%"></stop>
            <stop stop-color="#F581FF" offset="45.0502622%"></stop>
            <stop stop-color="#3B5DDA" offset="100%"></stop>
        </radialGradient>
    </defs>
    <g id="Page-1" stroke="none" stroke-width="1" fill="none" fill-rule="evenodd">
        <path d="M25.6468731,6.72499015 L4.17914581,33.2586366 L25.6468731,85.3988586 L47.1146004,33.2586366 L25.6468731,6.72499015 Z M25.0264185,26.9713639 L20.2282367,17.292273 L25.0264185,11.832273 L25.0264185,26.9713639 Z M26.5155094,11.832273 L44.9636913,33.0931821 L26.4327822,42.8550003 L26.5155094,11.832273 Z M24.860964,74.7877275 L9.72187308,41.7795457 L24.9436913,52.8650003 L24.860964,74.7877275 Z M26.4327822,44.5095457 L44.5500549,34.9959094 L26.3500549,74.7050003 L26.4327822,44.5095457 Z M19.1527822,18.5331821 L24.9436913,30.1977275 L25.0264185,30.1977275 L24.9436913,51.0450003 L8.48096399,39.0495457 L5.91641853,33.5068185 L19.1527822,18.5331821 Z" id="Shape" fill="url(#radialGradient-1)" fill-rule="nonzero"></path>
        <path d="M60.4365349,46.3980911 L60.4365349,41.9809243 L63.2181261,39.7222722 L67.6575457,46.3980911 L75.5906438,46.3980911 L68.0469684,35.8948027 L74.9119355,29.9421976 L66.3001292,29.9421976 L60.4365349,35.6388963 L60.4365349,29.9421976 L54.0611279,29.9421976 L54.0611279,46.3980911 L60.4365349,46.3980911 Z M79.3175865,46.3980911 L79.3175865,40.419753 C79.3175865,39.6186019 79.4101565,39.0530834 79.5952965,38.7231976 C79.7804364,38.3933118 80.0918082,38.228369 80.5294118,38.228369 C80.9400859,38.228369 81.2464084,38.3714317 81.4483793,38.6575571 C81.6503502,38.9436825 81.7513356,39.379603 81.7513356,39.9653185 L81.7513356,40.0461069 L86.3259761,40.0461069 L86.3259761,39.0362525 C86.3259761,37.4743443 86.0146043,36.3315258 85.3918607,35.6077968 C84.7691172,34.8840678 83.7912415,34.5222033 82.4582337,34.5222033 C81.7849974,34.5222033 81.1790848,34.6215057 80.6404958,34.8201104 C80.1019068,35.0187151 79.6373737,35.3132559 79.2468967,35.703733 L79.1863054,34.8150611 L74.0562451,34.8150611 L74.0562451,46.3980911 L79.3175865,46.3980911 Z M98.2624551,46.3980911 L98.2624551,42.1768997 L104.917396,31.4623445 L98.2624551,31.4623445 L95.4045672,37.6123578 L92.7183544,31.4623445 L85.9119358,31.4623445 L92.4658908,42.1768997 L92.4658908,46.3980911 L98.2624551,46.3980911 Z M111.451154,46.3980911 L111.451154,41.1468482 L116.833678,41.1468482 C118.947639,41.1468482 120.578554,40.7243924 121.726422,39.8794809 C122.87429,39.0345694 123.448224,37.8446243 123.448224,36.3096456 C123.448224,34.7679345 122.87429,33.5746233 121.726422,32.7297117 C120.578554,31.8848002 118.947639,31.4623445 116.833678,31.4623445 L105.664688,31.4623445 L105.664688,46.3980911 L111.451154,46.3980911 Z M111.451154,37.895117 L111.451154,34.6736815 L114.622096,34.6736815 C115.564627,34.6736815 116.215983,34.7931809 116.576165,35.0321798 C116.936346,35.2711787 117.116437,35.6902682 117.116437,36.2894485 C117.116437,36.8818964 116.936346,37.2976198 116.576165,37.5366187 C116.215983,37.7756176 115.564627,37.895117 114.622096,37.895117 L111.451154,37.895117 Z M135.011057,46.3980911 L135.011057,35.2492985 L140.433975,35.2492985 L140.433975,31.4623445 L123.82187,31.4623445 L123.82187,35.2492985 L129.224591,35.2492985 L129.224591,46.3980911 L135.011057,46.3980911 Z M156.046324,29.8263803 L156.046324,26.8978026 L151.926118,26.8978026 L151.926118,29.8263803 L156.046324,29.8263803 Z M150.623406,29.8263803 L150.623406,26.8978026 L146.513299,26.8978026 L146.513299,29.8263803 L150.623406,29.8263803 Z M151.28991,46.7919343 C154.608965,46.7919343 157.113404,46.1304797 158.803227,44.8075704 C160.49305,43.4846611 161.337961,41.5272267 161.337961,38.935267 C161.337961,36.336575 160.49305,34.3757744 158.803227,33.0528651 C157.113404,31.7299559 154.608965,31.0685012 151.28991,31.0685012 C147.970855,31.0685012 145.466416,31.7299559 143.776593,33.0528651 C142.08677,34.3757744 141.241859,36.336575 141.241859,38.935267 C141.241859,41.5272267 142.08677,43.4846611 143.776593,44.8075704 C145.466416,46.1304797 147.970855,46.7919343 151.28991,46.7919343 Z M151.28991,42.944389 C150.051155,42.944389 149.103575,42.6010385 148.44717,41.9143375 C147.790764,41.2276365 147.462562,40.234613 147.462562,38.935267 C147.462562,37.6291887 147.790764,36.6294328 148.44717,35.9359995 C149.103575,35.2425661 150.051155,34.8958494 151.28991,34.8958494 C152.528665,34.8958494 153.476245,35.2425661 154.13265,35.9359995 C154.789055,36.6294328 155.117258,37.6291887 155.117258,38.935267 C155.117258,40.234613 154.789055,41.2276365 154.13265,41.9143375 C153.476245,42.6010385 152.528665,42.944389 151.28991,42.944389 Z" id="KrYPTÖ" fill="#E7E7EE" fill-rule="nonzero"></path>
        <path d="M49.1910948,66.4164217 C49.7908675,64.9686944 50.4526857,63.5830126 51.1145039,62.3007398 C51.9831402,63.5623308 52.7690493,64.9273308 53.5342766,66.3957398 C53.7410948,66.7886944 54.0720039,66.7473308 54.278822,66.4577853 C54.4649584,66.2096035 54.6304129,65.8166489 54.6304129,65.4030126 C54.6304129,65.0721035 54.5270039,64.5757398 54.3201857,64.0793762 C54.0720039,63.5416489 53.5135948,62.5696035 52.913822,61.597558 C55.5817766,59.6741489 58.373822,57.2543762 59.2631402,56.0134671 C60.0283675,54.9793762 60.0904129,54.1934671 59.9456402,53.7798308 C59.8215493,53.407558 59.5320039,53.3455126 59.3045039,53.6143762 C57.463822,55.7859671 54.8579129,57.8541489 52.458822,59.7155126 C53.0585948,58.6193762 53.2240493,58.3711944 54.0306402,56.9234671 C54.5476857,56.0134671 54.6924584,55.2689217 54.6924584,54.7311944 C54.6924584,54.3796035 54.5890493,54.0486944 54.4649584,53.8211944 C54.1960948,53.3868762 53.9272311,53.3661944 53.6170039,53.7798308 C52.3554129,55.5377853 48.8395039,62.4455126 48.3224584,64.1621035 C48.1983675,64.6377853 48.136322,65.0514217 48.136322,65.4030126 C48.136322,65.8786944 48.2810948,66.2302853 48.4672311,66.5198308 C48.7567766,66.8921035 49.0256402,66.8093762 49.1910948,66.4164217 Z M61.1865493,66.7266489 C63.5649584,66.7266489 65.653822,64.5964217 67.0601857,62.0318762 C67.8460948,60.5841489 68.383822,58.8055126 68.383822,57.275058 C68.383822,55.8066489 67.8460948,54.545058 66.5017766,53.9452853 C66.1501857,53.5730126 65.5710948,53.3248308 64.8265493,53.3248308 C64.3922311,53.3248308 63.9992766,53.3868762 63.5856402,53.5316489 C61.2279129,54.3589217 57.3397311,58.185058 57.3397311,62.5489217 C57.3397311,64.2655126 58.0222311,65.8166489 59.8008675,66.4784671 C60.2558675,66.6439217 60.6901857,66.7266489 61.1865493,66.7266489 Z M60.5040493,65.5891489 C59.7181402,65.5891489 59.2010948,64.782558 59.2010948,63.3348308 C59.2010948,61.9905126 59.6560948,60.2118762 60.7108675,58.5780126 C62.5929129,55.7032398 65.0333675,54.3382398 65.9433675,54.6691489 C66.3776857,54.8346035 66.5845039,55.4964217 66.5845039,56.4891489 C66.5845039,57.7507398 66.1708675,59.4880126 65.1781402,61.3286944 C63.7097311,64.0173308 61.786322,65.5891489 60.5040493,65.5891489 Z M68.5285948,66.3543762 C69.4385948,63.8105126 70.9070039,60.9564217 72.3754129,58.4332398 C72.1892766,60.1911944 72.1065493,61.9077853 72.1065493,63.1073308 C72.1065493,63.6036944 72.1272311,64.0173308 72.1685948,64.6171035 C72.251322,65.6718762 72.5822311,66.2096035 73.2647311,66.5611944 C73.616322,66.7473308 73.843822,66.6232398 73.9679129,66.375058 C75.2295039,63.5830126 77.7733675,58.7227853 78.9315493,56.820058 C79.5726857,55.7859671 79.6967766,55.0621035 79.6967766,54.5657398 C79.6967766,54.2761944 79.6347311,54.0073308 79.5106402,53.7591489 C79.2831402,53.3661944 79.0349584,53.2627853 78.7247311,53.6971035 C77.3597311,55.8273308 75.3535948,59.4466489 73.9472311,62.4041489 C74.0920039,60.0257398 74.2781402,57.8748308 74.5676857,56.1996035 C74.6297311,55.8273308 74.6710948,55.4964217 74.6710948,55.2068762 C74.6710948,54.4623308 74.3815493,54.0280126 73.7610948,53.5730126 C73.4508675,53.3248308 73.2026857,53.3248308 72.933822,53.7798308 C71.3620039,56.3857398 68.7354129,61.3080126 67.6599584,64.0793762 C67.4945039,64.5136944 67.3910948,65.010058 67.3910948,65.3202853 C67.3910948,65.7959671 67.5772311,66.2096035 67.7840493,66.4784671 C68.0735948,66.7886944 68.383822,66.7680126 68.5285948,66.3543762 Z M81.2892766,66.6646035 C81.8476857,66.6646035 82.3647311,66.5611944 82.8197311,66.4371035 C83.8745039,66.147558 86.3770039,64.3068762 85.9633675,62.3834671 C86.4183675,62.3421035 86.811322,62.3421035 87.1215493,62.3627853 C87.7006402,62.4041489 87.6799584,62.1973308 87.5558675,61.8871035 C87.266322,61.2252853 86.6458675,60.7496035 85.5083675,60.7702853 C84.8879129,60.7702853 84.2467766,60.8943762 83.5435948,60.9977853 C82.7783675,61.142558 81.9510948,61.2873308 81.123822,61.3080126 C80.7101857,61.3080126 80.6067766,61.5148308 80.7308675,61.825058 C81.0410948,62.4661944 81.8270039,62.9418762 82.9024584,62.8591489 C83.3160948,62.8177853 83.8124584,62.7557398 84.3501857,62.6523308 C83.3781402,64.4723308 81.9097311,65.6098308 80.8135948,65.6098308 C80.1517766,65.6098308 79.6347311,65.0721035 79.6347311,63.4796035 C79.6347311,62.1559671 80.0276857,60.3980126 81.123822,58.7227853 C82.9851857,55.8893762 86.0874584,54.1107398 86.6872311,54.7311944 C86.9147311,54.9586944 86.7079129,55.5377853 86.128822,57.0268762 C85.9633675,57.4611944 85.9426857,57.6886944 85.9426857,57.9161944 C85.9426857,58.5573308 86.2942766,58.9709671 86.6872311,59.2811944 C87.0801857,59.5914217 87.3283675,59.3846035 87.4317766,59.1157398 C87.6592766,58.5159671 87.9901857,57.7093762 88.2176857,57.1716489 C88.403822,56.7373308 88.4865493,56.365058 88.4865493,56.0548308 C88.4865493,55.4964217 88.2176857,54.5243762 87.2249584,53.8005126 C86.8733675,53.5523308 86.356322,53.407558 85.8185948,53.407558 C85.3635948,53.407558 84.9085948,53.4489217 84.308822,53.6557398 C81.9717766,54.4623308 77.7733675,58.3711944 77.7733675,62.7764217 C77.7733675,64.4930126 78.4351857,65.4443762 79.2210948,66.0027853 C79.8622311,66.4991489 80.5654129,66.6646035 81.2892766,66.6646035 Z M88.7554129,66.6852853 C89.8929129,66.375058 92.1058675,65.8373308 93.2020039,65.8580126 C93.636322,65.8580126 93.6983675,65.692558 93.5949584,65.4030126 C93.3467766,64.7205126 92.7676857,64.3896035 91.6508675,64.4309671 C90.9890493,64.4723308 89.6860948,64.6998308 88.8381402,64.9273308 C89.2517766,63.9966489 89.6860948,63.1486944 90.2651857,62.052558 C91.3820039,61.7630126 92.8297311,61.5148308 93.8431402,61.5148308 C94.318822,61.5148308 94.3601857,61.3080126 94.2567766,61.0391489 C94.0292766,60.3773308 93.4915493,60.005058 92.3540493,60.0464217 C92.0645039,60.0671035 91.7129129,60.0877853 91.2785948,60.1498308 C92.2506402,58.3918762 93.2020039,56.6752853 93.8845039,55.6411944 C94.1947311,55.5998308 94.4015493,55.5584671 94.7117766,55.4964217 C95.683822,55.3102853 96.8006402,55.1034671 97.8347311,55.1034671 C98.2276857,55.1034671 98.3724584,54.9173308 98.2897311,54.6898308 C98.0208675,53.9659671 97.503822,53.5936944 96.5524584,53.6143762 C96.0147311,53.6143762 95.4356402,53.7177853 94.7324584,53.8211944 C93.7397311,53.9866489 92.6435948,54.1107398 91.5060948,54.1107398 C91.1958675,54.1107398 90.9683675,54.2348308 91.0304129,54.5243762 C91.133822,54.9173308 91.3820039,55.2482398 91.8576857,55.5584671 C90.1410948,58.2264217 88.1556402,61.9698308 87.2249584,64.4102853 C87.0181402,64.9893762 86.9767766,65.2582398 87.1422311,65.5271035 C87.3697311,65.8993762 87.5145039,66.2302853 87.6592766,66.4371035 C87.9281402,66.830058 88.2590493,66.830058 88.7554129,66.6852853 Z M101.784958,66.4577853 C101.909049,66.2509671 101.991777,66.0027853 101.991777,65.7546035 C101.991777,65.4236944 101.888367,65.0307398 101.702231,64.6791489 C101.309277,63.9139217 100.606095,62.9211944 99.8615493,62.0318762 C102.115867,61.4527853 104.246095,60.1911944 105.300867,58.7641489 C106.066095,57.7093762 106.500413,56.5305126 105.942004,55.1448308 C105.424958,53.8418762 104.411549,53.3868762 103.315413,53.4282398 C102.550186,53.4696035 101.826322,53.6764217 101.040413,53.9246035 C100.295867,54.1727853 99.5099584,54.4002853 98.6826857,54.5243762 C98.2483675,54.5864217 98.1449584,54.7518762 98.3104129,55.0414217 C98.5585948,55.4757398 98.8481402,55.7652853 99.5306402,55.8893762 C97.7106402,58.7227853 95.8906402,62.4868762 95.3735948,64.2861944 C95.2701857,64.6584671 95.228822,65.0307398 95.228822,65.3202853 C95.228822,65.8373308 95.3942766,66.1682398 95.6217766,66.4164217 C95.9320039,66.7266489 96.1595039,66.6852853 96.3042766,66.2923308 C96.9247311,64.7618762 97.4624584,63.5830126 97.9795039,62.5696035 C98.8067766,63.5002853 99.7995039,64.8239217 101.081777,66.5198308 C101.329958,66.8507398 101.557458,66.8093762 101.784958,66.4577853 Z M99.0342766,60.5841489 C99.4065493,59.9430126 99.9235948,59.0743762 100.482004,58.0402853 C100.999049,57.0682398 101.247231,56.3443762 101.267913,55.7652853 L102.074504,55.4964217 C102.736322,55.2689217 103.522231,55.000058 103.997913,55.000058 C104.30814,55.000058 104.53564,55.1034671 104.659731,55.4343762 C105.197458,56.7993762 103.17064,59.5293762 99.0342766,60.5841489 Z M105.44564,66.3543762 C106.35564,63.8105126 107.824049,60.9564217 109.292458,58.4332398 C109.106322,60.1911944 109.023595,61.9077853 109.023595,63.1073308 C109.023595,63.6036944 109.044277,64.0173308 109.08564,64.6171035 C109.168367,65.6718762 109.499277,66.2096035 110.181777,66.5611944 C110.533367,66.7473308 110.760867,66.6232398 110.884958,66.375058 C112.146549,63.5830126 114.690413,58.7227853 115.848595,56.820058 C116.489731,55.7859671 116.613822,55.0621035 116.613822,54.5657398 C116.613822,54.2761944 116.551777,54.0073308 116.427686,53.7591489 C116.200186,53.3661944 115.952004,53.2627853 115.641777,53.6971035 C114.276777,55.8273308 112.27064,59.4466489 110.864277,62.4041489 C111.009049,60.0257398 111.195186,57.8748308 111.484731,56.1996035 C111.546777,55.8273308 111.58814,55.4964217 111.58814,55.2068762 C111.58814,54.4623308 111.298595,54.0280126 110.67814,53.5730126 C110.367913,53.3248308 110.119731,53.3248308 109.850867,53.7798308 C108.279049,56.3857398 105.652458,61.3080126 104.577004,64.0793762 C104.411549,64.5136944 104.30814,65.010058 104.30814,65.3202853 C104.30814,65.7959671 104.494277,66.2096035 104.701095,66.4784671 C104.99064,66.7886944 105.300867,66.7680126 105.44564,66.3543762 Z M115.331549,66.6852853 C116.469049,66.375058 118.682004,65.8373308 119.77814,65.8580126 C120.212458,65.8580126 120.274504,65.692558 120.171095,65.4030126 C119.922913,64.7205126 119.343822,64.3896035 118.227004,64.4309671 C117.565186,64.4723308 116.262231,64.6998308 115.414277,64.9273308 C115.827913,63.9966489 116.262231,63.1486944 116.841322,62.052558 C117.95814,61.7630126 119.405867,61.5148308 120.419277,61.5148308 C120.894958,61.5148308 120.936322,61.3080126 120.832913,61.0391489 C120.605413,60.3773308 120.067686,60.005058 118.930186,60.0464217 C118.64064,60.0671035 118.289049,60.0877853 117.854731,60.1498308 C118.826777,58.3918762 119.77814,56.6752853 120.46064,55.6411944 C120.770867,55.5998308 120.977686,55.5584671 121.287913,55.4964217 C122.259958,55.3102853 123.376777,55.1034671 124.410867,55.1034671 C124.803822,55.1034671 124.948595,54.9173308 124.865867,54.6898308 C124.597004,53.9659671 124.079958,53.5936944 123.128595,53.6143762 C122.590867,53.6143762 122.011777,53.7177853 121.308595,53.8211944 C120.315867,53.9866489 119.219731,54.1107398 118.082231,54.1107398 C117.772004,54.1107398 117.544504,54.2348308 117.606549,54.5243762 C117.709958,54.9173308 117.95814,55.2482398 118.433822,55.5584671 C116.717231,58.2264217 114.731777,61.9698308 113.801095,64.4102853 C113.594277,64.9893762 113.552913,65.2582398 113.718367,65.5271035 C113.945867,65.8993762 114.09064,66.2302853 114.235413,66.4371035 C114.504277,66.830058 114.835186,66.830058 115.331549,66.6852853 Z" id="KONGERNE" fill="#A7A7B9" fill-rule="nonzero" transform="translate(86.512314, 60.049413) rotate(-3.000000) translate(-86.512314, -60.049413) "></path>
    </g>
</svg>